<?xml version="1.0" encoding="UTF-8"?>
<svg width="35px" height="32px" viewBox="0 0 35 32" version="1.1" xmlns="http://www.w3.org/2000/svg" xmlns:xlink="http://www.w3.org/1999/xlink">
    <!-- Generator: Sketch 50.2 (55047) - http://www.bohemiancoding.com/sketch -->
    <title>Fill 1</title>
    <desc>Created with Sketch.</desc>
    <defs></defs>
    <g id="Page-1" stroke="none" stroke-width="1" fill="none" fill-rule="evenodd" opacity="0.799999952">
        <g id="List" transform="translate(-656.000000, -403.000000)" fill="#4A4A4A">
            <path d="M673.5,434.13874 C673.001663,434.13874 672.521355,433.958186 672.146833,433.630405 C670.732911,432.394131 669.369747,431.232199 668.16714,430.207497 L668.161073,430.202113 C664.635029,427.19705 661.58989,424.602226 659.471358,422.045769 C657.103144,419.188275 656,416.478609 656,413.518577 C656,410.642712 656.985994,407.989441 658.776402,406.047446 C660.588173,404.082465 663.074221,403 665.777565,403 C667.797916,403 669.648139,403.638901 671.276622,404.898587 C672.098383,405.534155 672.843411,406.312508 673.5,407.22006 C674.156503,406.312508 674.901189,405.534155 675.723292,404.898587 C677.352203,403.638901 679.20234,403 681.222777,403 C683.925437,403 686.411741,404.082465 688.223512,406.047446 C690.013921,407.989441 691,410.642712 691,413.518577 C691,416.478609 689.897112,419.188275 687.528642,422.045769 C685.41011,424.602226 682.365655,427.196708 678.839867,430.20143 C677.635209,431.227841 676.269737,432.391739 674.852825,433.630746 C674.478645,433.958186 673.997996,434.13874 673.5,434.13874 Z M665.777565,405.050515 C663.653649,405.050515 661.703024,405.897911 660.283805,407.437014 C658.843138,408.999446 658.050088,411.159079 658.050088,413.518577 C658.050088,416.008298 658.975327,418.234581 661.049853,420.737633 C663.054824,423.157287 666.037243,425.698705 669.490571,428.641647 L669.496895,428.647031 C670.704201,429.67609 672.072749,430.842296 673.497009,432.087712 C674.9299,430.839989 676.300414,429.671733 677.510027,428.641391 C680.963098,425.698363 683.945091,423.157287 685.950489,420.737633 C688.024587,418.234581 688.949827,416.008298 688.949827,413.518577 C688.949827,411.159079 688.156435,408.999446 686.716195,407.437014 C685.297232,405.897911 683.345924,405.050515 681.222777,405.050515 C679.667011,405.050515 678.238734,405.544836 676.977339,406.520149 C675.853516,407.389676 675.070464,408.488804 674.611518,409.257843 C674.375508,409.653044 673.959971,409.88931 673.5,409.88931 C673.039687,409.88931 672.624492,409.653044 672.38814,409.257843 C671.929536,408.488804 671.146484,407.389676 670.022319,406.520149 C668.761266,405.544836 667.332989,405.050515 665.777565,405.050515 Z" id="Fill-1"></path>
        </g>
    </g>
</svg>