<?xml version="1.0" encoding="UTF-8"?>
<svg width="35px" height="32px" viewBox="0 0 35 32" version="1.1" xmlns="http://www.w3.org/2000/svg" xmlns:xlink="http://www.w3.org/1999/xlink">
    <!-- Generator: Sketch 50.2 (55047) - http://www.bohemiancoding.com/sketch -->
    <title>Fill 1 Copy</title>
    <desc>Created with Sketch.</desc>
    <defs></defs>
    <g id="Page-1" stroke="none" stroke-width="1" fill="none" fill-rule="evenodd" opacity="0.799999952">
        <g id="List" transform="translate(-656.000000, -744.000000)" fill="#FD3B3B">
            <path d="M673.5,775.13874 C673.001663,775.13874 672.521355,774.958186 672.146833,774.630405 C670.732911,773.394131 669.369747,772.232199 668.16714,771.207497 L668.161073,771.202113 C664.635029,768.19705 661.58989,765.602226 659.471358,763.045769 C657.103144,760.188275 656,757.478609 656,754.518577 C656,751.642712 656.985994,748.989441 658.776402,747.047446 C660.588173,745.082465 663.074221,744 665.777565,744 C667.797916,744 669.648139,744.638901 671.276622,745.898587 C672.098383,746.534155 672.843411,747.312508 673.5,748.22006 C674.156503,747.312508 674.901189,746.534155 675.723292,745.898587 C677.352203,744.638901 679.20234,744 681.222777,744 C683.925437,744 686.411741,745.082465 688.223512,747.047446 C690.013921,748.989441 691,751.642712 691,754.518577 C691,757.478609 689.897112,760.188275 687.528642,763.045769 C685.41011,765.602226 682.365655,768.196708 678.839867,771.20143 C677.635209,772.227841 676.269737,773.391739 674.852825,774.630746 C674.478645,774.958186 673.997996,775.13874 673.5,775.13874 Z" id="Fill-1-Copy"></path>
        </g>
    </g>
</svg>